<svg width="25" height="24" viewBox="0 0 25 24" fill="none" xmlns="http://www.w3.org/2000/svg">
<path d="M12.4177 2C6.89273 2 2.41772 6.475 2.41772 12C2.41772 16.425 5.28022 20.1625 9.25522 21.4875C9.75522 21.575 9.94272 21.275 9.94272 21.0125C9.94272 20.775 9.93022 19.9875 9.93022 19.15C7.41772 19.6125 6.76772 18.5375 6.56772 17.975C6.45522 17.6875 5.96772 16.8 5.54272 16.5625C5.19272 16.375 4.69272 15.9125 5.53022 15.9C6.31772 15.8875 6.88022 16.625 7.06772 16.925C7.96772 18.4375 9.40523 18.0125 9.98023 17.75C10.0677 17.1 10.3302 16.6625 10.6177 16.4125C8.39272 16.1625 6.06772 15.3 6.06772 11.475C6.06772 10.3875 6.45522 9.4875 7.09272 8.7875C6.99272 8.5375 6.64272 7.5125 7.19272 6.1375C7.19272 6.1375 8.03022 5.875 9.94272 7.1625C10.7427 6.9375 11.5927 6.825 12.4427 6.825C13.2927 6.825 14.1427 6.9375 14.9427 7.1625C16.8552 5.8625 17.6927 6.1375 17.6927 6.1375C18.2427 7.5125 17.8927 8.5375 17.7927 8.7875C18.4302 9.4875 18.8177 10.375 18.8177 11.475C18.8177 15.3125 16.4802 16.1625 14.2552 16.4125C14.6177 16.725 14.9302 17.325 14.9302 18.2625C14.9302 19.6 14.9177 20.675 14.9177 21.0125C14.9177 21.275 15.1052 21.5875 15.6052 21.4875C19.6757 20.1133 22.4166 16.2963 22.4177 12C22.4177 6.475 17.9427 2 12.4177 2Z" fill="#030E12"/>
</svg>
