<svg width="61" height="25" viewBox="0 0 61 25" fill="none" xmlns="http://www.w3.org/2000/svg">
<path d="M19.3178 10.7889C19.3178 11.0386 19.3138 11.2923 19.3057 11.55C19.2977 11.7997 19.2856 12.0574 19.2695 12.3232L18.6533 24.7426L5.42445 11.2963L4.8808 22.8217L0 22.858L1.44974 18.9437L3.79349 18.8229L4.80831 1.92129L16.4425 16.2617C16.5069 15.4885 16.5754 14.7193 16.6479 13.9541C16.7204 13.189 16.7928 12.4198 16.8653 11.6466C16.9539 10.7285 17.0184 9.88279 17.0586 9.10959C17.0989 8.3364 17.119 7.63569 17.119 7.00747C17.119 5.69464 16.966 4.51874 16.66 3.47976C16.3539 2.44078 15.8908 1.54274 15.2706 0.785657L16.068 0.290328C17.1472 1.47428 17.9567 2.94013 18.4963 4.68788C19.044 6.43562 19.3178 8.46929 19.3178 10.7889ZM9.12129 10.4989C9.12129 10.209 9.04881 9.99152 8.90383 9.84655C8.76691 9.70157 8.55348 9.62908 8.26353 9.62908C7.98164 9.62908 7.7682 9.70157 7.62323 9.84655C7.47825 9.99152 7.40577 10.209 7.40577 10.4989C7.40577 10.7889 7.47825 11.0063 7.62323 11.1513C7.7682 11.2882 7.98164 11.3567 8.26353 11.3567C8.55348 11.3567 8.76691 11.2882 8.90383 11.1513C9.04881 11.0063 9.12129 10.7889 9.12129 10.4989ZM12.4799 14.1958C12.4799 13.8897 12.3711 13.6239 12.1537 13.3984C11.9362 13.1729 11.6785 13.0601 11.3805 13.0601C11.0583 13.0601 10.7845 13.1729 10.559 13.3984C10.3415 13.6159 10.2328 13.8817 10.2328 14.1958C10.2328 14.5099 10.3415 14.7716 10.559 14.981C10.7845 15.1905 11.0583 15.2952 11.3805 15.2952C11.6785 15.2952 11.9362 15.1905 12.1537 14.981C12.3711 14.7636 12.4799 14.5018 12.4799 14.1958ZM15.5002 17.8564C15.5002 17.5745 15.4317 17.361 15.2948 17.2161C15.1579 17.0711 14.9404 16.9986 14.6424 16.9986C14.3524 16.9986 14.135 17.0711 13.99 17.2161C13.845 17.361 13.7726 17.5745 13.7726 17.8564C13.7726 18.1463 13.845 18.3638 13.99 18.5088C14.135 18.6537 14.3524 18.7262 14.6424 18.7262C14.9404 18.7262 15.1579 18.6537 15.2948 18.5088C15.4317 18.3638 15.5002 18.1463 15.5002 17.8564ZM40.3168 13.1447C40.3168 14.4173 40.1356 15.6133 39.7732 16.7328C39.4108 17.8523 38.859 18.8994 38.1181 19.8739C37.3127 20.9371 36.4025 21.7344 35.3877 22.266C34.381 22.7976 33.2574 23.0634 32.0171 23.0634C30.7928 23.0634 29.6733 22.7976 28.6585 22.266C27.6517 21.7344 26.7456 20.9371 25.9402 19.8739C25.2073 18.9074 24.6596 17.8604 24.2972 16.7328C23.9348 15.6052 23.7535 14.4092 23.7535 13.1447C23.7535 11.8802 23.9307 10.6963 24.2851 9.59284C24.6475 8.48943 25.1831 7.47058 25.8919 6.5363C26.6732 5.51343 27.5672 4.74829 28.5739 4.24088C29.5807 3.72541 30.7002 3.46768 31.9325 3.46768C33.1648 3.46768 34.2883 3.72541 35.3032 4.24088C36.326 4.74829 37.2442 5.5094 38.0577 6.52422C38.8067 7.46655 39.3705 8.48943 39.749 9.59284C40.1276 10.6963 40.3168 11.8802 40.3168 13.1447ZM37.7073 14.2803C37.7073 14.1756 37.7073 14.0709 37.7073 13.9662C37.7073 13.8535 37.7033 13.7367 37.6952 13.6159L35.8106 13.7608L35.5931 12.8064L37.5261 12.5044C37.4214 11.9728 37.2724 11.4775 37.0791 11.0184C36.8858 10.5513 36.6482 10.1204 36.3663 9.72573L34.7595 11.6466L34.0588 11.0788L35.4723 8.73508C35.0051 8.33237 34.4897 8.03437 33.9259 7.84107C33.3621 7.64777 32.7379 7.55515 32.0533 7.5632L32.7903 10.4627L31.9325 10.7647L30.9056 7.81691C30.3015 8.03437 29.7498 8.35653 29.2505 8.7834C28.7511 9.20222 28.2961 9.72171 27.8853 10.3419L29.8545 12.5286L29.1417 13.3622L27.2933 11.4413C27.0356 12.0453 26.8463 12.6292 26.7255 13.193C26.6047 13.7568 26.5523 14.2964 26.5685 14.8119L26.5805 15.271L28.7189 15.416V16.4791L26.6772 16.3583C26.7336 16.753 26.8262 17.1516 26.9551 17.5543C27.092 17.957 27.2611 18.3598 27.4625 18.7625L29.1176 17.2765L29.7941 17.8926L28.1028 19.6806C28.4491 20.1236 28.8276 20.4901 29.2384 20.78C29.6572 21.07 30.1123 21.2915 30.6036 21.4445L30.8814 19.0645L31.7392 19.1853L31.6788 21.6257H31.8117C32.3191 21.6257 32.8144 21.5492 33.2977 21.3962C33.789 21.2351 34.2682 20.9854 34.7353 20.6471L33.346 17.953L34.1675 17.4698L35.5931 19.8618C35.8911 19.5316 36.1529 19.1934 36.3784 18.847C36.6039 18.5007 36.7932 18.1423 36.9462 17.7718L34.9407 16.0321L35.4723 15.5005L37.3449 16.5999C37.4657 16.2617 37.5543 15.8992 37.6107 15.5126C37.6751 15.126 37.7073 14.7153 37.7073 14.2803ZM44.6801 6.02889C44.6801 6.29468 44.6116 6.49603 44.4747 6.63295C44.3458 6.76182 44.1485 6.82625 43.8827 6.82625C43.6169 6.82625 43.4156 6.76182 43.2787 6.63295C43.1498 6.49603 43.0854 6.29468 43.0854 6.02889C43.0854 5.7631 43.1498 5.56578 43.2787 5.43691C43.4156 5.29999 43.6169 5.23153 43.8827 5.23153C44.1485 5.23153 44.3458 5.29999 44.4747 5.43691C44.6116 5.56578 44.6801 5.7631 44.6801 6.02889ZM45.9365 8.40888C45.9365 8.67467 45.8721 8.87602 45.7432 9.01294C45.6144 9.14181 45.413 9.20624 45.1392 9.20624C44.8814 9.20624 44.6841 9.14181 44.5472 9.01294C44.4103 8.87602 44.3418 8.67467 44.3418 8.40888C44.3418 8.13504 44.4103 7.92966 44.5472 7.79274C44.6841 7.65582 44.8814 7.58736 45.1392 7.58736C45.413 7.58736 45.6144 7.65582 45.7432 7.79274C45.8721 7.92966 45.9365 8.13504 45.9365 8.40888ZM47.3621 10.8855C47.3621 11.1594 47.2936 11.3647 47.1567 11.5017C47.0279 11.6386 46.8265 11.707 46.5527 11.707C46.2949 11.707 46.0976 11.6386 45.9607 11.5017C45.8238 11.3647 45.7553 11.1594 45.7553 10.8855C45.7553 10.6278 45.8238 10.4305 45.9607 10.2935C46.0976 10.1566 46.2949 10.0882 46.5527 10.0882C46.8265 10.0882 47.0279 10.1566 47.1567 10.2935C47.2936 10.4305 47.3621 10.6278 47.3621 10.8855ZM60.893 2.07834C60.1118 2.18305 59.4071 2.45689 58.7788 2.89986C58.1587 3.33479 57.611 3.9469 57.1358 4.7362C57.5707 4.51069 57.9654 4.34558 58.3197 4.24088C58.6822 4.12812 58.9963 4.07174 59.2621 4.07174C59.3909 4.07174 59.544 4.08382 59.7212 4.10798C59.9064 4.12409 60.1158 4.14825 60.3494 4.18047L60.0353 5.15905H59.8178C58.5694 5.15905 57.4378 5.68256 56.423 6.7296C55.4162 7.76858 54.5263 9.35524 53.7531 11.4896C53.5275 12.1178 53.3584 12.6172 53.2456 12.9877C53.1329 13.3581 53.0725 13.5877 53.0644 13.6763C53.0644 13.6763 53.0242 14.4857 52.9436 16.1046C52.8711 17.7235 52.7543 20.1518 52.5933 23.3896L50.5274 23.8245L49.8508 12.8306L44.6801 4.05966L48.9327 2.41662L52.3275 11.2359C52.8913 9.72171 53.4067 8.43305 53.8739 7.3699C54.3491 6.30676 54.788 5.46108 55.1907 4.83285C55.9559 3.64084 56.7935 2.74684 57.7036 2.15083C58.6137 1.54677 59.5963 1.24474 60.6514 1.24474L60.893 2.07834ZM48.8481 13.3622C48.8481 13.628 48.7796 13.8293 48.6427 13.9662C48.5058 14.1031 48.3044 14.1716 48.0387 14.1716C47.7729 14.1716 47.5715 14.1031 47.4346 13.9662C47.3057 13.8293 47.2413 13.628 47.2413 13.3622C47.2413 13.0964 47.3057 12.8991 47.4346 12.7702C47.5715 12.6333 47.7729 12.5648 48.0387 12.5648C48.3044 12.5648 48.5058 12.6333 48.6427 12.7702C48.7796 12.8991 48.8481 13.0964 48.8481 13.3622Z" fill="white"/>
</svg>
